<svg width="374" height="342" viewBox="0 0 374 342" fill="none" xmlns="http://www.w3.org/2000/svg">
<path d="M82.9039 124C82.4103 123.995 81.9208 123.908 81.4538 123.744C80.8382 123.549 80.2659 123.23 79.77 122.807C79.2739 122.383 78.8643 121.862 78.564 121.274C78.2637 120.687 78.0788 120.044 78.0203 119.382C77.9617 118.721 78.0304 118.054 78.2225 117.419C80.5688 109.129 85.4859 101.861 92.2199 96.7281C98.9543 91.5957 107.134 88.8823 115.507 89.0039C123.869 88.9249 132.03 91.6543 138.755 96.7806C145.482 101.907 150.409 109.151 152.792 117.419C153.167 118.706 153.031 120.093 152.42 121.278C151.805 122.463 150.764 123.349 149.518 123.744C148.903 123.948 148.254 124.023 147.614 123.965C146.971 123.908 146.345 123.718 145.773 123.408C145.202 123.097 144.698 122.672 144.288 122.158C143.878 121.643 143.57 121.049 143.388 120.411C141.591 114.194 137.884 108.749 132.825 104.895C127.766 101.042 121.629 98.9885 115.341 99.0457C109.081 99.0255 102.982 101.096 97.9568 104.947C92.9316 108.798 89.2494 114.222 87.4606 120.411C87.1534 121.421 86.5506 122.309 85.7345 122.951C84.9185 123.594 83.9296 123.96 82.9039 124Z" fill="#8BBFFC"/>
<path d="M188.5 205.568C177.468 205.568 170.145 204.113 161.092 202.124C159.021 201.679 155 202.124 155 209.012C155 222.784 168.996 240 188.5 240C208.004 240 222 222.784 222 209.012C222 202.124 217.976 201.674 215.908 202.124C206.855 204.113 199.535 205.568 188.5 205.568Z" fill="#8BBFFC"/>
<path d="M268.841 135H255.159C235 135 235 135.152 235 114.841V106.358C234.996 103.029 235.648 99.7326 236.919 96.6563C238.19 93.5799 240.055 90.7842 242.408 88.4291C244.76 86.0739 247.553 84.2055 250.628 82.9309C253.703 81.6561 256.999 81 260.328 81H263.672C267.001 81 270.297 81.6561 273.372 82.9309C276.447 84.2055 279.24 86.0739 281.592 88.4291C283.945 90.7842 285.81 93.5799 287.081 96.6563C288.352 99.7326 289.004 103.029 289 106.358V114.993C288.939 135.152 288.939 135 268.841 135Z" fill="#8BBFFC"/>
<path opacity="0.1" d="M262 119C268.075 119 273 114.075 273 108C273 101.925 268.075 97 262 97C255.925 97 251 101.925 251 108C251 114.075 255.925 119 262 119Z" fill="white"/>
<path d="M253.5 101C255.985 101 258 98.7614 258 96.0001C258 93.2386 255.985 91 253.5 91C251.015 91 249 93.2386 249 96.0001C249 98.7614 251.015 101 253.5 101Z" fill="white"/>
<path d="M187 342C174.997 342 163.69 336.448 155.688 326.772L129.595 295.046C129.073 294.412 126.986 293.619 126.116 293.46H117.419C44.88 293.46 0 275.535 0 186.387V107.073C0 36.9601 40.5312 0 117.419 0H256.581C333.469 0 374 36.9601 374 107.073V186.387C374 256.5 333.469 293.46 256.581 293.46H247.884C246.492 293.46 245.274 294.095 244.405 295.046L218.312 326.772C210.31 336.448 199.003 342 187 342ZM117.419 23.7941C55.1433 23.7941 26.093 50.2848 26.093 107.073V186.387C26.093 258.086 53.0558 269.666 117.419 269.666H126.116C134.988 269.666 145.077 274.266 150.47 280.77L176.563 312.495C182.651 319.792 191.349 319.792 197.437 312.495L223.53 280.77C229.271 273.79 238.316 269.666 247.884 269.666H256.581C318.857 269.666 347.907 243.175 347.907 186.387V107.073C347.907 50.2848 318.857 23.7941 256.581 23.7941H117.419Z" fill="#8BBFFC"/>
</svg>
